<svg width="500" height="500" viewBox="0 0 500 500" fill="none" xmlns="http://www.w3.org/2000/svg">
<g filter="url(#filter0_d_3_2)">
<path d="M63 82C63 62.1178 79.1178 46 99 46H401C420.882 46 437 62.1178 437 82V418C437 437.882 420.882 454 401 454H99C79.1177 454 63 437.882 63 418V82Z" fill="#010000"/>
<path d="M99 39.5C75.5279 39.5 56.5 58.5279 56.5 82V418C56.5 441.472 75.5279 460.5 99 460.5H401C424.472 460.5 443.5 441.472 443.5 418V82C443.5 58.5279 424.472 39.5 401 39.5H99Z" stroke="#E7E5E5" stroke-width="13"/>
</g>
<path d="M114 127C114.66 120.4 121.042 113.44 125.111 108.667C128.613 104.558 131.5 105 136.889 105C146.647 105 156.225 104.777 165.556 108C171.455 110.038 174.486 114.795 179 118.778C184.062 123.244 190.419 128.393 196.778 130.778C202.362 132.872 210.193 128.835 215.222 127.222C224.519 124.242 243.088 117.038 252.889 122.111C260.084 125.836 265.535 132.152 272.778 136C275.676 137.539 278.521 134.94 280.722 133.278C286.03 129.27 291.394 125.307 297.111 121.889C306.478 116.289 323.327 112.721 333 119C337.86 122.155 345.054 129.839 351 130C359.603 130.233 368.209 125.383 376 122.222C378.135 121.356 391.861 114.722 394 119" stroke="#E1DBDB" stroke-width="16" stroke-linecap="round"/>
<path d="M114 220.014C114.66 213.413 121.042 206.454 125.111 201.681C128.613 197.572 131.5 198.014 136.889 198.014C146.647 198.014 156.225 197.791 165.556 201.014C171.455 203.052 174.486 207.809 179 211.792C184.062 216.258 190.419 221.407 196.778 223.792C202.362 225.886 210.193 221.849 215.222 220.236C224.519 217.255 243.088 210.052 252.889 215.125C260.084 218.85 265.535 225.166 272.778 229.014C275.676 230.553 278.521 227.954 280.722 226.292C286.03 222.284 291.394 218.321 297.111 214.903C306.478 209.303 323.327 205.735 333 212.014C337.86 215.169 345.054 222.853 351 223.014C359.603 223.246 368.209 218.397 376 215.236C378.135 214.37 391.861 207.736 394 212.014" stroke="#E1DBDB" stroke-width="16" stroke-linecap="round"/>
<path d="M114 313.014C114.66 306.413 121.042 299.454 125.111 294.681C128.613 290.572 131.5 291.014 136.889 291.014C146.647 291.014 156.225 290.791 165.556 294.014C171.455 296.052 174.486 300.809 179 304.792C184.062 309.258 190.419 314.407 196.778 316.792C202.362 318.886 210.193 314.849 215.222 313.236C224.519 310.255 243.088 303.052 252.889 308.125C260.084 311.85 265.535 318.166 272.778 322.014C275.676 323.553 278.521 320.954 280.722 319.292C286.03 315.284 291.394 311.321 297.111 307.903C306.478 302.303 323.327 298.735 333 305.014C337.86 308.169 345.054 315.853 351 316.014C359.603 316.246 368.209 311.397 376 308.236C378.135 307.37 391.861 300.736 394 305.014" stroke="#E1DBDB" stroke-width="16" stroke-linecap="round"/>
<path d="M114 406.014C114.66 399.413 121.042 392.454 125.111 387.681C128.613 383.572 131.5 384.014 136.889 384.014C146.647 384.014 156.225 383.791 165.556 387.014C171.455 389.052 174.486 393.809 179 397.792C184.062 402.258 190.419 407.407 196.778 409.792C202.362 411.886 210.193 407.849 215.222 406.236C224.519 403.255 243.088 396.052 252.889 401.125C260.084 404.85 265.535 411.166 272.778 415.014C275.676 416.553 278.521 413.954 280.722 412.292C286.03 408.284 291.394 404.321 297.111 400.903C306.478 395.303 323.327 391.735 333 398.014C337.86 401.169 345.054 408.853 351 409.014C359.603 409.246 368.209 404.397 376 401.236C378.135 400.37 391.861 393.736 394 398.014" stroke="#E1DBDB" stroke-width="16" stroke-linecap="round"/>
<defs>
<filter id="filter0_d_3_2" x="50" y="33" width="407" height="441" filterUnits="userSpaceOnUse" color-interpolation-filters="sRGB">
<feFlood flood-opacity="0" result="BackgroundImageFix"/>
<feColorMatrix in="SourceAlpha" type="matrix" values="0 0 0 0 0 0 0 0 0 0 0 0 0 0 0 0 0 0 127 0" result="hardAlpha"/>
<feOffset dx="4" dy="4"/>
<feGaussianBlur stdDeviation="1.5"/>
<feComposite in2="hardAlpha" operator="out"/>
<feColorMatrix type="matrix" values="0 0 0 0 0 0 0 0 0 0 0 0 0 0 0 0 0 0 0.5 0"/>
<feBlend mode="normal" in2="BackgroundImageFix" result="effect1_dropShadow_3_2"/>
<feBlend mode="normal" in="SourceGraphic" in2="effect1_dropShadow_3_2" result="shape"/>
</filter>
</defs>
</svg>
